<svg width="40" height="40" viewBox="0 0 40 40" fill="none" xmlns="http://www.w3.org/2000/svg">
<path fill-rule="evenodd" clip-rule="evenodd" d="M20 40C31.0457 40 40 31.0457 40 20C40 8.9543 31.0457 0 20 0C8.9543 0 0 8.9543 0 20C0 31.0457 8.9543 40 20 40ZM16.7058 10.9763C16.079 10.3512 15.2288 10 14.3424 10C13.4559 10 12.6058 10.3512 11.979 10.9763C11.3521 11.6014 11 12.4493 11 13.3333V26.6667C11 27.5507 11.3521 28.3986 11.979 29.0237C12.6058 29.6488 13.4559 30 14.3424 30C15.2288 30 16.079 29.6488 16.7058 29.0237C17.3326 28.3986 17.6848 27.5507 17.6848 26.6667V13.3333C17.6848 12.4493 17.3326 11.6014 16.7058 10.9763ZM27.8471 10.9763C27.2203 10.3512 26.3702 10 25.4837 10C24.5972 10 23.7471 10.3512 23.1203 10.9763C22.4934 11.6014 22.1413 12.4493 22.1413 13.3333V26.6667C22.1413 27.5507 22.4934 28.3986 23.1203 29.0237C23.7471 29.6488 24.5972 30 25.4837 30C26.3702 30 27.2203 29.6488 27.8471 29.0237C28.4739 28.3986 28.8261 27.5507 28.8261 26.6667V13.3333C28.8261 12.4493 28.4739 11.6014 27.8471 10.9763Z" fill="#9F86C0"/>
</svg>
