<svg width="27" height="20" viewBox="0 0 27 20" fill="none" xmlns="http://www.w3.org/2000/svg">
<path d="M25.4503 20C25.8232 19.9995 26.1808 19.8488 26.4445 19.581C26.7082 19.3132 26.8566 18.9501 26.8571 18.5713V1.4275C26.8571 1.16312 26.7849 0.903938 26.6483 0.678837C26.5118 0.453736 26.3164 0.271562 26.0839 0.152621C25.8514 0.0336806 25.5909 -0.0173534 25.3315 0.00520797C25.0722 0.0277693 24.824 0.123039 24.6148 0.280399L14.2063 8.11014V1.4275C14.2063 1.16312 14.134 0.903938 13.9975 0.678837C13.861 0.453736 13.6656 0.271562 13.4331 0.152621C13.2006 0.0336806 12.9401 -0.0173534 12.6807 0.00520797C12.4213 0.0277693 12.1732 0.123039 11.964 0.280399L0.568937 8.85231C0.392458 8.98508 0.249068 9.15799 0.150266 9.35718C0.0514644 9.55638 0 9.77632 0 9.99935C0 10.2224 0.0514644 10.4423 0.150266 10.6415C0.249068 10.8407 0.392458 11.0136 0.568937 11.1464L11.964 19.7184C12.1732 19.8757 12.4213 19.971 12.6807 19.9936C12.9401 20.0161 13.2006 19.9651 13.433 19.8462C13.6655 19.7272 13.861 19.5451 13.9975 19.32C14.134 19.0949 14.2063 18.8357 14.2063 18.5713V11.8889L24.6148 19.7184C24.8563 19.901 25.1492 19.9997 25.4503 20Z" fill="#9F86C0"/>
</svg>
