<svg width="24" height="20" viewBox="0 0 24 20" fill="none" xmlns="http://www.w3.org/2000/svg">
<path d="M16.1937 6.22687V4.04399H7.36186C6.35983 4.04389 5.37436 4.30248 4.49872 4.79528C3.62309 5.28808 2.88628 5.99878 2.35803 6.86011C1.82978 7.72144 1.52758 8.70489 1.48003 9.71737C1.43248 10.7298 1.64116 11.7379 2.08631 12.646C2.12941 12.7336 2.15504 12.8289 2.16173 12.9265C2.16841 13.0241 2.15602 13.1221 2.12527 13.2149C2.09452 13.3077 2.046 13.3934 1.98249 13.4672C1.91897 13.541 1.84171 13.6015 1.75511 13.6451C1.66851 13.6887 1.57427 13.7146 1.47777 13.7214C1.38127 13.7281 1.28439 13.7156 1.19267 13.6845C1.10096 13.6534 1.0162 13.6043 0.943233 13.5401C0.870268 13.4758 0.810527 13.3977 0.76742 13.3101C0.210387 12.1748 -0.0509354 10.9145 0.00820524 9.64857C0.0673458 8.3826 0.444991 7.15286 1.10537 6.07583C1.76575 4.99879 2.68701 4.11012 3.78187 3.49398C4.87674 2.87785 6.10897 2.55465 7.36186 2.55499H16.1937V0.372111C16.1937 0.301378 16.2137 0.232117 16.2512 0.172438C16.2887 0.112758 16.3423 0.0651314 16.4056 0.035134C16.469 0.00513655 16.5394 -0.00598964 16.6088 0.0030583C16.6781 0.0121062 16.7435 0.0409538 16.7972 0.0862228L20.2711 3.0136C20.4477 3.1625 20.4477 3.43648 20.2711 3.58538L16.7972 6.51276C16.7435 6.55803 16.6781 6.58687 16.6088 6.59592C16.5394 6.60497 16.469 6.59384 16.4056 6.56385C16.3423 6.53385 16.2887 6.48622 16.2512 6.42654C16.2137 6.36686 16.1937 6.2976 16.1937 6.22687ZM21.8019 6.35492C21.9766 6.26715 22.1786 6.25314 22.3636 6.31596C22.5485 6.37878 22.7012 6.51329 22.7881 6.68995C23.3452 7.82518 23.6065 9.08546 23.5474 10.3514C23.4882 11.6174 23.1106 12.8471 22.4502 13.9242C21.7898 15.0012 20.8686 15.8899 19.7737 16.506C18.6788 17.1222 17.4466 17.4454 16.1937 17.445H7.36186V19.6279C7.36183 19.6986 7.34189 19.7679 7.30435 19.8276C7.26682 19.8872 7.21325 19.9349 7.14993 19.9649C7.08661 19.9949 7.01614 20.006 6.94679 19.9969C6.87744 19.9879 6.81208 19.959 6.75835 19.9138L3.28449 16.9864C3.24308 16.9515 3.20976 16.9077 3.1869 16.8583C3.16403 16.8089 3.15218 16.7551 3.15218 16.7005C3.15218 16.646 3.16403 16.5921 3.1869 16.5427C3.20976 16.4933 3.24308 16.4496 3.28449 16.4146L6.75835 13.4872C6.81208 13.442 6.87744 13.4131 6.94679 13.4041C7.01614 13.395 7.08661 13.4062 7.14993 13.4362C7.21325 13.4662 7.26682 13.5138 7.30435 13.5735C7.34189 13.6331 7.36183 13.7024 7.36186 13.7731V15.956H16.1937C17.1959 15.9564 18.1815 15.698 19.0573 15.2053C19.9332 14.7126 20.6702 14.0019 21.1986 13.1405C21.727 12.2792 22.0294 11.2956 22.077 10.283C22.1246 9.2704 21.9159 8.26226 21.4707 7.35404C21.384 7.17731 21.3701 6.97295 21.4322 6.78589C21.4943 6.59882 21.6273 6.44435 21.8019 6.35641V6.35492Z" fill="#9F86C0"/>
</svg>
