<svg width="24" height="20" viewBox="0 0 24 20" fill="none" xmlns="http://www.w3.org/2000/svg">
<path fill-rule="evenodd" clip-rule="evenodd" d="M0 3.29943C0 3.10198 0.0784383 2.91261 0.218059 2.77299C0.35768 2.63337 0.547047 2.55493 0.744501 2.55493H1.489C4.76779 2.55493 7.18741 4.4013 8.7464 6.15534C9.47601 6.97727 10.0344 7.79622 10.423 8.43649C10.8102 7.79622 11.37 6.97727 12.0996 6.15534C13.6586 4.4013 16.0782 2.55493 19.357 2.55493V4.04393C16.6798 4.04393 14.6324 5.54783 13.2134 7.14404C12.4461 8.01312 11.7871 8.9721 11.2509 9.99994C11.7867 11.0277 12.4452 11.9867 13.2119 12.8559C14.6339 14.4521 16.6828 15.956 19.357 15.956V17.445C16.0782 17.445 13.6586 15.5986 12.0996 13.8445C11.4735 13.1359 10.9124 12.3725 10.423 11.5634C10.0359 12.2037 9.47601 13.0226 8.7464 13.8445C7.18741 15.5986 4.76779 17.445 1.489 17.445H0.744501C0.547047 17.445 0.35768 17.3665 0.218059 17.2269C0.0784383 17.0873 0 16.8979 0 16.7005C0 16.503 0.0784383 16.3136 0.218059 16.174C0.35768 16.0344 0.547047 15.956 0.744501 15.956H1.489C4.16623 15.956 6.21361 14.4521 7.63263 12.8559C8.39991 11.9868 9.05889 11.0278 9.59513 9.99994C9.05936 8.97217 8.40088 8.0132 7.63411 7.14404C6.21212 5.54783 4.16325 4.04393 1.489 4.04393H0.744501C0.547047 4.04393 0.35768 3.9655 0.218059 3.82587C0.0784383 3.68625 0 3.49689 0 3.29943Z" fill="#9F86C0"/>
<path d="M19.3569 6.22687V0.372111C19.357 0.301378 19.3771 0.232117 19.4151 0.172438C19.4531 0.112758 19.5073 0.0651314 19.5713 0.035134C19.6354 0.00513655 19.7066 -0.00598964 19.7768 0.0030583C19.847 0.0121062 19.9131 0.0409538 19.9674 0.0862228L23.4815 3.0136C23.6602 3.1625 23.6602 3.43648 23.4815 3.58538L19.9674 6.51276C19.9131 6.55803 19.847 6.58687 19.7768 6.59592C19.7066 6.60497 19.6354 6.59384 19.5713 6.56385C19.5073 6.53385 19.4531 6.48622 19.4151 6.42654C19.3771 6.36686 19.357 6.2976 19.3569 6.22687ZM19.3569 19.6279V13.7731C19.357 13.7024 19.3771 13.6331 19.4151 13.5735C19.4531 13.5138 19.5073 13.4662 19.5713 13.4362C19.6354 13.4062 19.7066 13.395 19.7768 13.4041C19.847 13.4131 19.9131 13.442 19.9674 13.4872L23.4815 16.4146C23.6602 16.5635 23.6602 16.8375 23.4815 16.9864L19.9674 19.9138C19.9131 19.959 19.847 19.9879 19.7768 19.9969C19.7066 20.006 19.6354 19.9949 19.5713 19.9649C19.5073 19.9349 19.4531 19.8872 19.4151 19.8276C19.3771 19.7679 19.357 19.6986 19.3569 19.6279Z" fill="#9F86C0"/>
</svg>
